<svg width="21" height="21" viewBox="0 0 21 21" fill="none" xmlns="http://www.w3.org/2000/svg">
<path fill-rule="evenodd" clip-rule="evenodd" d="M9.66668 2.14697C8.7462 2.14697 8.00001 2.89316 8.00001 3.81364V5.20833C7.71484 5.3438 7.44241 5.50173 7.18499 5.67982L5.96953 4.97808C5.18103 4.52283 4.16009 4.79413 3.70034 5.59045L2.86526 7.03684C2.40707 7.83044 2.67605 8.85008 3.46953 9.3082L4.68535 10.0102C4.67298 10.1652 4.66668 10.322 4.66668 10.4803C4.66668 10.6386 4.67298 10.7954 4.68535 10.9505L3.46953 11.6524C2.67605 12.1106 2.40707 13.1302 2.86526 13.9238L3.70034 15.3702C4.16009 16.1665 5.18103 16.4378 5.96953 15.9826L7.185 15.2808C7.44241 15.4589 7.71484 15.6168 8.00001 15.7523V17.147C8.00001 18.0675 8.7462 18.8137 9.66668 18.8137H11.3333C12.2538 18.8137 13 18.0675 13 17.147V15.7523C13.2851 15.6169 13.5574 15.459 13.8147 15.281L15.0298 15.9826C15.8183 16.4378 16.8393 16.1665 17.299 15.3702L18.1341 13.9238C18.5923 13.1302 18.3233 12.1106 17.5298 11.6524L16.3146 10.9508C16.327 10.7956 16.3333 10.6387 16.3333 10.4803C16.3333 10.3219 16.327 10.165 16.3146 10.0098L17.5298 9.3082C18.3233 8.85008 18.5923 7.83044 18.1341 7.03684L17.299 5.59045C16.8393 4.79413 15.8183 4.52283 15.0298 4.97808L13.8147 5.67961C13.5574 5.5016 13.2851 5.34375 13 5.20833V3.81364C13 2.89316 12.2538 2.14697 11.3333 2.14697H9.66668ZM13 10.4803C13 11.861 11.8807 12.9803 10.5 12.9803C9.1193 12.9803 8.00001 11.861 8.00001 10.4803C8.00001 9.09959 9.1193 7.98031 10.5 7.98031C11.8807 7.98031 13 9.09959 13 10.4803Z" fill="white"/>
</svg>
