<svg width="21" height="21" viewBox="0 0 21 21" fill="none" xmlns="http://www.w3.org/2000/svg">
<path fill-rule="evenodd" clip-rule="evenodd" d="M17.1667 10.4799C17.1667 13.5863 15.0421 16.1965 12.1667 16.9365V18.6465C15.9704 17.8744 18.8333 14.5115 18.8333 10.4799C18.8333 6.44827 15.9704 3.08535 12.1667 2.31323V4.02323C15.0421 4.76331 17.1667 7.37347 17.1667 10.4799ZM15.5 10.4799C15.5 8.30284 14.1087 6.45077 12.1667 5.76438V7.59248C13.163 8.16882 13.8333 9.24606 13.8333 10.4799C13.8333 11.7136 13.163 12.7909 12.1667 13.3672V15.1954C14.1087 14.509 15.5 12.6569 15.5 10.4799ZM5.98816 7.14986H3.83334C2.91286 7.14986 2.16667 7.89605 2.16667 8.81656V12.1499C2.16667 13.0703 2.91286 13.8166 3.83334 13.8166H5.98816L9.07742 17.7391C9.60242 18.2641 10.5 17.8923 10.5 17.1499V3.81652C10.5 3.0741 9.60242 2.7023 9.07742 3.22727L5.98816 7.14986Z" fill="white"/>
</svg>
