<svg width="21" height="21" viewBox="0 0 21 21" fill="none" xmlns="http://www.w3.org/2000/svg">
<path fill-rule="evenodd" clip-rule="evenodd" d="M17.1667 5.4799H3.83334V15.4799H17.1667V5.4799ZM3.83334 3.81323C2.91286 3.81323 2.16667 4.55942 2.16667 5.4799V15.4799C2.16667 16.4004 2.91286 17.1466 3.83334 17.1466H17.1667C18.0872 17.1466 18.8333 16.4004 18.8333 15.4799V5.4799C18.8333 4.55942 18.0872 3.81323 17.1667 3.81323H3.83334ZM10.0717 11.1664C9.97859 11.7478 9.73826 12.2277 9.35892 12.5946C8.973 12.966 8.47425 13.1544 7.87737 13.1544C7.14241 13.1544 6.55414 12.9014 6.12976 12.4018C5.71144 11.9076 5.50001 11.2276 5.50001 10.3778C5.50001 9.45998 5.74027 8.73995 6.21372 8.23543C6.63355 7.7896 7.17377 7.56323 7.81971 7.56323C8.6786 7.56323 9.31901 7.86752 9.72309 8.46722C9.94217 8.80062 10.0625 9.1419 10.0803 9.48073L10.0878 9.63015H9.93459H8.91884H8.80657L8.77774 9.52457C8.71855 9.30023 8.64471 9.13207 8.55669 9.02448C8.40191 8.83665 8.1758 8.74537 7.86169 8.74537C7.5501 8.74537 7.30883 8.87707 7.12622 9.14882C6.93351 9.43532 6.83588 9.85357 6.83588 10.3941C6.83588 10.9301 6.93705 11.3321 7.13634 11.5886C7.32956 11.8376 7.5668 11.9589 7.86119 11.9589C8.16417 11.9589 8.38724 11.8583 8.54405 11.6497C8.63307 11.5348 8.70895 11.3528 8.77065 11.1106L8.79695 11.0036H8.91176H9.9275H10.0974L10.0717 11.1664ZM14.7614 12.5946C15.1408 12.2277 15.3806 11.7478 15.4737 11.1664L15.4999 11.0036H15.33H14.3138H14.2L14.1732 11.1106C14.112 11.3528 14.0356 11.5348 13.9461 11.6497C13.7898 11.8583 13.5662 11.9589 13.2632 11.9589C12.9693 11.9589 12.7326 11.8376 12.5393 11.5886C12.3401 11.3321 12.2379 10.9301 12.2379 10.3941C12.2379 9.85357 12.336 9.43532 12.5293 9.14882C12.7108 8.87707 12.9521 8.74537 13.2643 8.74537C13.5778 8.74537 13.8049 8.83665 13.9587 9.02448C14.0468 9.13207 14.1216 9.30023 14.1808 9.52457L14.2086 9.63015H14.3219H15.3371H15.4898L15.4833 9.48073C15.4645 9.1419 15.3447 8.80062 15.1252 8.46722C14.721 7.86752 14.0816 7.56323 13.2228 7.56323C12.5758 7.56323 12.0361 7.7896 11.6163 8.23543C11.1423 8.73995 10.9025 9.45998 10.9025 10.3778C10.9025 11.2276 11.114 11.9076 11.5318 12.4018C11.9567 12.9014 12.5444 13.1544 13.2799 13.1544C13.8768 13.1544 14.375 12.966 14.7614 12.5946Z" fill="white"/>
</svg>
