<svg width="21" height="21" viewBox="0 0 21 21" fill="none" xmlns="http://www.w3.org/2000/svg">
<path fill-rule="evenodd" clip-rule="evenodd" d="M3.83329 5.4799H17.1666V10.4799H18.8333V5.4799C18.8333 4.55942 18.0871 3.81323 17.1666 3.81323H3.83329C2.91282 3.81323 2.16663 4.55942 2.16663 5.4799V13.8133C2.16663 14.7337 2.91282 15.4799 3.83329 15.4799H8.83329V13.8133H3.83329V5.4799ZM10.5 13.1466C10.5 12.5943 10.9477 12.1466 11.5 12.1466H17.8333C18.3856 12.1466 18.8333 12.5943 18.8333 13.1466V17.8133C18.8333 18.3655 18.3856 18.8133 17.8333 18.8133H11.5C10.9477 18.8133 10.5 18.3655 10.5 17.8133V13.1466ZM8.41663 8.08406V9.0749L6.67079 7.32907C6.55829 7.21657 6.40163 7.14657 6.22913 7.14657C5.88413 7.14657 5.60413 7.42573 5.60413 7.77157C5.60413 7.94407 5.67413 8.0999 5.78746 8.21323L7.53246 9.95907H6.54163C6.19663 9.95907 5.91663 10.2382 5.91663 10.5841C5.91663 10.9291 6.19663 11.2091 6.54163 11.2091H9.04163C9.38663 11.2091 9.66663 10.9291 9.66663 10.5841V8.08406C9.66663 7.73823 9.38663 7.45907 9.04163 7.45907C8.69663 7.45907 8.41663 7.73823 8.41663 8.08406Z" fill="white"/>
</svg>
