<svg width="21" height="21" viewBox="0 0 21 21" fill="none" xmlns="http://www.w3.org/2000/svg">
<path fill-rule="evenodd" clip-rule="evenodd" d="M13.8333 4.64665H15.1548L12.4107 7.39075C12.0853 7.71619 12.0853 8.24382 12.4107 8.56926C12.7362 8.89473 13.2638 8.89473 13.5892 8.56926L16.3333 5.8252V7.14665C16.3333 7.60688 16.7064 7.97998 17.1667 7.97998C17.6269 7.97998 18 7.60688 18 7.14665V3.81331C18 3.5923 17.9122 3.38034 17.7559 3.22406C17.5997 3.06778 17.3877 2.97998 17.1667 2.97998H13.8333C13.3731 2.97998 13 3.35308 13 3.81331C13 4.27355 13.3731 4.64665 13.8333 4.64665ZM4.66667 7.14666V5.82515L7.41077 8.56925C7.73621 8.89465 8.26384 8.89465 8.58928 8.56925C8.91475 8.24381 8.91475 7.71617 8.58928 7.39074L5.8452 4.64666L7.16667 4.64666C7.6269 4.64666 8 4.27356 8 3.81333C8 3.35309 7.6269 2.98 7.16667 2.98H3.83333C3.61232 2.98 3.40036 3.06779 3.24408 3.22407C3.0878 3.38035 3 3.59231 3 3.81333V7.14666C3 7.6069 3.3731 7.97999 3.83333 7.97999C4.29357 7.97999 4.66667 7.6069 4.66667 7.14666ZM7.16668 16.3133H5.84517L8.58927 13.5692C8.91467 13.2438 8.91467 12.7161 8.58927 12.3907C8.26383 12.0653 7.73619 12.0653 7.41076 12.3907L4.66667 15.1348V13.8133C4.66667 13.3531 4.29358 12.98 3.83334 12.98C3.37311 12.98 3.00002 13.3531 3.00002 13.8133V17.1466C3.00002 17.3676 3.08781 17.5796 3.24409 17.7359C3.40037 17.8922 3.61233 17.98 3.83335 17.98H7.16668C7.62692 17.98 8.00001 17.6069 8.00001 17.1466C8.00001 16.6864 7.62692 16.3133 7.16668 16.3133ZM16.3333 15.1348V13.8133C16.3333 13.3531 16.7064 12.98 17.1667 12.98C17.6269 12.98 18 13.3531 18 13.8133V17.1466C18 17.3676 17.9122 17.5796 17.7559 17.7359C17.5997 17.8922 17.3877 17.98 17.1667 17.98H13.8333C13.3731 17.98 13 17.6069 13 17.1466C13 16.6864 13.3731 16.3133 13.8333 16.3133H15.1548L12.4107 13.5692C12.0852 13.2438 12.0852 12.7161 12.4107 12.3907C12.7362 12.0653 13.2638 12.0653 13.5892 12.3907L16.3333 15.1348Z" fill="white"/>
</svg>
