<svg width="52" height="58" viewBox="0 0 52 58" fill="none" xmlns="http://www.w3.org/2000/svg">
<path d="M9.90897 55.2295C7.9929 55.2274 6.15592 54.4652 4.80106 53.1104C3.44619 51.7555 2.68416 49.9185 2.68204 48.0024V45.4475C2.68053 40.9233 3.99915 36.497 6.47635 32.7112C8.95355 28.9254 12.4816 25.9446 16.628 24.1345C19.4507 22.9058 22.4925 22.2594 25.571 22.2344H25.989H26.407C29.4305 22.2626 32.4187 22.8866 35.2008 24.0706C37.983 25.2545 40.5044 26.9754 42.621 29.1345C46.9029 33.4827 49.3009 39.342 49.2961 45.4446V47.9995C49.2939 49.9156 48.5318 51.7526 47.1769 53.1074C45.822 54.4623 43.9851 55.2244 42.069 55.2266L9.90897 55.2295Z" fill="#7D5521"/>
<path d="M42.07 55.7295H9.90897C7.86029 55.7274 5.89618 54.9125 4.44754 53.4639C2.99891 52.0152 2.18416 50.0511 2.18204 48.0024V45.4475C2.18067 40.8259 3.52783 36.3044 6.0585 32.4373C8.58918 28.5701 12.1933 25.5254 16.429 23.6765C19.3132 22.4205 22.4213 21.7595 25.567 21.7334C25.847 21.7334 26.131 21.7334 26.413 21.7334C29.5024 21.7628 32.5557 22.4012 35.3982 23.6116C38.2408 24.822 40.8168 26.5808 42.979 28.7876C47.3528 33.2295 49.8021 39.2146 49.797 45.4485V48.0034C49.7946 50.0519 48.9798 52.0159 47.5312 53.4644C46.0826 54.9128 44.1185 55.7274 42.07 55.7295ZM25.989 22.7295H25.5771C22.6186 22.7574 19.6946 23.3682 16.9724 24.5273C14.2503 25.6864 11.7835 27.3709 9.71304 29.4844C5.52323 33.7394 3.17704 39.473 3.18204 45.4446V47.9995C3.18389 49.7831 3.89317 51.493 5.15433 52.7542C6.41548 54.0153 8.12542 54.7247 9.90897 54.7266H42.07C43.8535 54.7247 45.5635 54.0153 46.8246 52.7542C48.0858 51.493 48.7952 49.7831 48.797 47.9995V45.4446C48.7984 41.0178 47.508 36.6867 45.0841 32.9824C42.6602 29.2782 39.2081 26.3617 35.151 24.5906C32.3899 23.3881 29.4144 22.7554 26.403 22.7305L25.989 22.7295Z" fill="white"/>
<path d="M42.0701 57.21H9.90904C7.46774 57.2073 5.12713 56.2363 3.40086 54.51C1.6746 52.7837 0.703683 50.4433 0.701036 48.002V45.4468C0.699593 40.5366 2.13104 35.7328 4.81981 31.6243C7.50858 27.5157 11.3378 24.281 15.838 22.3169C18.9039 20.9814 22.2079 20.2788 25.552 20.251C25.843 20.251 26.136 20.251 26.428 20.251C29.7116 20.2827 32.9569 20.9614 35.978 22.2483C38.9992 23.5352 41.7371 25.4051 44.035 27.751C48.6813 32.47 51.2833 38.8284 51.2781 45.4509V48.0059C51.2741 50.4464 50.3025 52.7859 48.5764 54.5112C46.8503 56.2366 44.5106 57.2071 42.0701 57.21ZM25.989 24.21H25.589C22.8246 24.2359 20.0926 24.8069 17.5492 25.8901C15.0058 26.9734 12.7011 28.5477 10.767 30.5229C6.84939 34.5006 4.65584 39.8609 4.661 45.4438V47.9988C4.66258 49.3894 5.21568 50.7225 6.19896 51.7058C7.18224 52.6891 8.51542 53.2423 9.90599 53.2439H42.067C43.4576 53.2423 44.7907 52.6891 45.774 51.7058C46.7573 50.7225 47.3104 49.3894 47.312 47.9988V45.4438C47.3141 41.3049 46.1084 37.2553 43.8428 33.7915C41.5771 30.3277 38.3499 27.6004 34.557 25.9438C31.9777 24.8208 29.1981 24.2299 26.385 24.2068L25.989 24.21Z" fill="#89540D"/>
<path d="M25.9901 26.3115H25.6131C20.5852 26.3776 15.7862 28.4237 12.2574 32.0059C8.72859 35.588 6.75459 40.4172 6.76398 45.4456V48.0005C6.76398 48.8349 7.09538 49.6351 7.68537 50.2251C8.27536 50.8151 9.0756 51.1465 9.90998 51.1465H42.0721C42.4853 51.1466 42.8944 51.0653 43.2762 50.9072C43.6579 50.7492 44.0048 50.5175 44.2969 50.2253C44.5891 49.9332 44.8208 49.5863 44.9788 49.2046C45.1369 48.8228 45.2182 48.4137 45.2181 48.0005V45.4456C45.2275 40.4172 43.2535 35.588 39.7247 32.0059C36.1959 28.4237 31.3969 26.3776 26.369 26.3115H25.9901Z" fill="white"/>
<path d="M42.0751 53.1292H9.91407C8.5548 53.1276 7.25157 52.5869 6.29042 51.6257C5.32926 50.6646 4.78859 49.3615 4.787 48.0022V45.447C4.77811 39.8967 6.95829 34.567 10.8544 30.614C14.7505 26.661 20.0482 24.4036 25.598 24.332C25.862 24.332 26.127 24.332 26.392 24.332C29.1414 24.354 31.8594 24.92 34.389 25.9973C36.9187 27.0746 39.2099 28.6421 41.131 30.6091C45.0267 34.5647 47.2081 39.8952 47.203 45.447V48.0022C47.2014 49.3616 46.6607 50.6648 45.6994 51.626C44.738 52.5872 43.4345 53.1278 42.0751 53.1292ZM25.994 28.2922H25.6371C21.1347 28.3641 16.8408 30.2026 13.6815 33.4114C10.5223 36.6202 8.75082 40.9421 8.74904 45.4451V48.0002C8.74956 48.3088 8.87241 48.6043 9.09059 48.8225C9.30877 49.0407 9.60443 49.1635 9.91298 49.1641H42.0751C42.3836 49.1635 42.6794 49.0407 42.8976 48.8225C43.1158 48.6043 43.2386 48.3088 43.2391 48.0002V45.4451C43.2374 40.9421 41.4658 36.6202 38.3065 33.4114C35.1473 30.2026 30.8535 28.3641 26.3511 28.2922H25.994Z" fill="white"/>
<path d="M25.99 19.1987C30.6778 19.1987 34.478 15.3984 34.478 10.7107C34.478 6.02286 30.6778 2.22266 25.99 2.22266C21.3022 2.22266 17.502 6.02286 17.502 10.7107C17.502 15.3984 21.3022 19.1987 25.99 19.1987Z" fill="white"/>
<path d="M25.9898 21.1792C23.9193 21.1792 21.8953 20.5651 20.1737 19.4148C18.452 18.2645 17.1103 16.6295 16.3179 14.7166C15.5256 12.8036 15.3181 10.6985 15.722 8.66773C16.1259 6.63694 17.1231 4.77174 18.5872 3.30762C20.0514 1.8435 21.9168 0.846334 23.9476 0.442386C25.9784 0.038437 28.0832 0.245715 29.9962 1.03809C31.9091 1.83046 33.5443 3.17243 34.6947 4.89405C35.845 6.61566 36.4588 8.63964 36.4588 10.7102C36.4556 13.4858 35.3519 16.1467 33.3892 18.1094C31.4266 20.072 28.7654 21.176 25.9898 21.1792ZM25.9898 4.20435C24.7031 4.20435 23.4452 4.5859 22.3753 5.30078C21.3054 6.01567 20.4715 7.03165 19.9791 8.22046C19.4867 9.40928 19.3579 10.7175 19.609 11.9795C19.86 13.2415 20.4796 14.4009 21.3895 15.3108C22.2994 16.2207 23.4587 16.8403 24.7208 17.0913C25.9828 17.3423 27.2908 17.2134 28.4796 16.721C29.6684 16.2285 30.6846 15.3946 31.3995 14.3247C32.1144 13.2548 32.4959 11.997 32.4959 10.7102C32.4941 8.98528 31.8079 7.33153 30.5882 6.11182C29.3685 4.89211 27.7148 4.2062 25.9898 4.20435Z" fill="white"/>
</svg>
