<svg width="44" height="55" viewBox="0 0 44 55" fill="none" xmlns="http://www.w3.org/2000/svg">
<path d="M28.0878 18.2939C31.4026 14.9791 31.4026 9.60484 28.0878 6.29007C24.773 2.9753 19.3987 2.9753 16.0839 6.29007C12.7692 9.60484 12.7692 14.9791 16.0839 18.2939C19.3987 21.6087 24.773 21.6087 28.0878 18.2939Z" fill="white"/>
<path d="M22.085 22.7617H22.077C19.2984 22.7607 16.634 21.6558 14.6698 19.6904C12.7056 17.7251 11.6025 15.0601 11.603 12.2815C11.6036 9.5029 12.7077 6.83835 14.6726 4.87378C16.6376 2.90921 19.3025 1.80566 22.0811 1.80566C24.8596 1.80566 27.5244 2.90921 29.4894 4.87378C31.4543 6.83835 32.5584 9.5029 32.559 12.2815C32.5595 15.0601 31.4564 17.7251 29.4922 19.6904C27.528 21.6558 24.8636 22.7607 22.085 22.7617ZM22.085 5.78662C21.2302 5.78662 20.3838 5.95496 19.5941 6.28223C18.8044 6.6095 18.087 7.08918 17.4828 7.69385C16.8786 8.29852 16.3995 9.01647 16.0729 9.8064C15.7462 10.5963 15.5783 11.4428 15.579 12.2976C15.6048 14.0135 16.2979 15.6518 17.5114 16.8652C18.7248 18.0787 20.3631 18.7718 22.079 18.7976C22.9338 18.7976 23.7803 18.6293 24.5699 18.302C25.3596 17.9747 26.0771 17.495 26.6813 16.8904C27.2855 16.2857 27.7645 15.5678 28.0912 14.7778C28.4178 13.9879 28.5856 13.1414 28.585 12.2866C28.5592 10.5708 27.8661 8.93243 26.6527 7.71899C25.4393 6.50556 23.8008 5.81243 22.085 5.78662Z" fill="white"/>
<path d="M22.085 27.8936H21.708C16.6801 27.9596 11.8811 30.0057 8.35233 33.5879C4.82353 37.17 2.84966 41.9993 2.85904 47.0276V49.5825C2.85904 50.4169 3.19044 51.2171 3.78043 51.8071C4.37042 52.3971 5.17067 52.7285 6.00504 52.7285H38.166C39.0004 52.7285 39.8007 52.3971 40.3907 51.8071C40.9806 51.2171 41.312 50.4169 41.312 49.5825V47.0276C41.3214 41.9993 39.3476 37.17 35.8188 33.5879C32.29 30.0057 27.4909 27.9596 22.463 27.8936H22.085Z" fill="white"/>
<path d="M38.166 54.7119H6.00499C4.64571 54.7103 3.34261 54.1697 2.38145 53.2085C1.4203 52.2473 0.879621 50.9442 0.878033 49.585V47.03C0.869147 41.4797 3.04932 36.1498 6.94542 32.1968C10.8415 28.2438 16.1392 25.9866 21.6891 25.915C21.9531 25.915 22.218 25.915 22.483 25.915C25.2324 25.9371 27.9503 26.503 30.48 27.5803C33.0096 28.6576 35.3009 30.2251 37.222 32.1921C41.1177 36.1478 43.2991 41.4782 43.294 47.03V49.585C43.2925 50.9444 42.7516 52.2478 41.7903 53.209C40.8289 54.1702 39.5254 54.7106 38.166 54.7119ZM22.0851 29.876H21.728C17.2256 29.9479 12.9318 31.7866 9.77256 34.9954C6.61334 38.2042 4.84186 42.526 4.84007 47.0291V49.584C4.84033 49.8927 4.96305 50.1888 5.18126 50.4072C5.39946 50.6256 5.69529 50.7485 6.00401 50.749H38.165C38.4737 50.7485 38.7697 50.6256 38.9879 50.4072C39.2061 50.1888 39.3288 49.8927 39.3291 49.584V47.0291C39.3273 42.526 37.5557 38.2042 34.3965 34.9954C31.2372 31.7866 26.9435 29.9479 22.441 29.876H22.0851Z" fill="white"/>
</svg>
