<svg width="44" height="55" viewBox="0 0 44 55" fill="none" xmlns="http://www.w3.org/2000/svg">
<path d="M27.8968 18.2939C31.2116 14.9791 31.2116 9.60484 27.8968 6.29007C24.582 2.9753 19.2077 2.9753 15.8929 6.29007C12.5782 9.60484 12.5782 14.9791 15.8929 18.2939C19.2077 21.6087 24.582 21.6087 27.8968 18.2939Z" fill="white"/>
<path d="M21.894 22.7625H21.8861C19.1096 22.7614 16.4471 21.6572 14.4845 19.6931C12.522 17.729 11.42 15.0659 11.4211 12.2893C11.4221 9.51276 12.5261 6.85026 14.4901 4.8877C16.4542 2.92513 19.1174 1.82316 21.894 1.82422H21.902C24.6786 1.82528 27.3411 2.92949 29.3036 4.89356C31.2662 6.85762 32.3682 9.52081 32.3671 12.2974C32.366 15.0739 31.2621 17.7364 29.298 19.699C27.3339 21.6615 24.6705 22.7635 21.894 22.7625ZM21.894 5.78638C21.0392 5.78638 20.1929 5.95471 19.4032 6.28198C18.6136 6.60925 17.8961 7.08894 17.2919 7.6936C16.6877 8.29827 16.2084 9.01623 15.8817 9.80615C15.5551 10.5961 15.3874 11.4426 15.3881 12.2974C15.4139 14.0132 16.107 15.6516 17.3205 16.865C18.5339 18.0784 20.1722 18.7716 21.8881 18.7974C22.7429 18.7974 23.5891 18.6288 24.3788 18.3015C25.1685 17.9742 25.8859 17.4946 26.4901 16.8899C27.0943 16.2852 27.5736 15.5675 27.9003 14.7776C28.227 13.9877 28.3946 13.1412 28.394 12.2864C28.3681 10.5705 27.675 8.93219 26.4616 7.71875C25.2481 6.50531 23.6098 5.81218 21.894 5.78638Z" fill="white"/>
<path d="M21.8941 27.8936H21.5169C16.489 27.9596 11.69 30.0057 8.16123 33.5879C4.63243 37.17 2.65868 41.9993 2.66806 47.0276V49.5825C2.66806 50.4169 2.99946 51.2171 3.58945 51.8071C4.17944 52.3971 4.97969 52.7285 5.81406 52.7285H37.9749C38.8093 52.7285 39.6096 52.3971 40.1996 51.8071C40.7895 51.2171 41.1209 50.4169 41.1209 49.5825V47.0276C41.1303 41.9993 39.1566 37.17 35.6278 33.5879C32.099 30.0057 27.3 27.9596 22.2721 27.8936H21.8941Z" fill="white"/>
<path d="M37.975 54.7119H5.81414C4.45487 54.7103 3.15152 54.1697 2.19036 53.2085C1.22921 52.2473 0.688534 50.9442 0.686946 49.585V47.03C0.67832 41.4798 2.85854 36.15 6.75457 32.197C10.6506 28.2441 15.9482 25.9869 21.498 25.915C21.762 25.915 22.0269 25.915 22.2909 25.915C25.0403 25.9372 27.7581 26.5033 30.2878 27.5806C32.8174 28.6579 35.1088 30.2252 37.03 32.1921C40.9257 36.1477 43.1071 41.4782 43.102 47.03V49.585C43.1004 50.9442 42.5597 52.2473 41.5986 53.2085C40.6374 54.1697 39.3343 54.7103 37.975 54.7119ZM21.894 29.876H21.537C17.0346 29.9479 12.7407 31.7866 9.58148 34.9954C6.42225 38.2042 4.65089 42.526 4.6491 47.0291V49.584C4.64937 49.8927 4.77196 50.1888 4.99017 50.4072C5.20837 50.6256 5.5042 50.7485 5.81292 50.749H37.9741C38.2828 50.7485 38.5786 50.6256 38.7968 50.4072C39.015 50.1888 39.1379 49.8927 39.1381 49.584V47.0291C39.1363 42.526 37.3647 38.2042 34.2055 34.9954C31.0463 31.7866 26.7524 29.9479 22.2499 29.876H21.894Z" fill="white"/>
</svg>
