<svg width="144" height="43" viewBox="0 0 144 43" fill="none" xmlns="http://www.w3.org/2000/svg">
<g clip-path="url(#clip0_1_385)">
<g clip-path="url(#clip1_1_385)">
<g clip-path="url(#clip2_1_385)">
<path d="M81.084 1.19915C81.2685 1.26132 81.3728 1.44583 81.4149 1.61229C80.9396 1.8369 80.4462 2.20993 80.0772 2.55889C80.1173 2.82763 80.015 3.03219 79.8707 3.21871C78.2662 2.06553 75.8977 2.51878 74.2091 3.21871C73.1261 3.57168 71.4515 4.82111 69.9674 5.56115C69.6064 5.80382 68.8062 6.27511 68.4432 6.92089L68.4352 7.38617C68.002 8.12821 67.1797 8.53934 67.0153 9.40372C67.0574 10.4125 65.7598 10.968 66.2732 12.1011C66.5199 13.1099 68.3108 15.314 68.4352 15.7452C68.6819 16.2185 68.3109 16.8983 67.9619 17.3516C67.4264 17.2272 66.4999 17.3716 66.2732 16.5474C65.1622 16.2185 65.7799 14.6121 64.4623 14.7986C63.1868 14.3854 62.8759 15.9297 61.9714 16.4872C61.6826 17.1671 61.1271 17.7226 61.2294 18.5649C61.6004 18.7294 61.827 19.1846 62.3003 18.8958C62.7114 18.1738 63.5157 17.9693 63.989 17.4118C64.7089 17.2874 65.2645 17.9071 65.7398 18.5028C65.6977 19.2869 67.1817 20.418 67.3663 20.5825C67.5728 21.2623 68.9687 22.4857 69.083 23.1034C69.5763 23.6569 69.9554 24.5614 69.6525 25.2353C69.2815 25.5441 68.9105 25.8149 68.365 25.8129C67.5006 25.875 67.5026 25.3295 66.9571 24.6998C66.5239 23.6269 65.3708 23.0092 64.9396 21.9402C64.6107 21.6314 64.2396 21.4047 63.8686 21.2623C62.9421 21.858 63.1486 23.0112 62.6533 23.8134C62.7556 24.5574 62.8599 25.482 63.5798 25.9753C64.013 26.1197 64.5064 26.3062 64.6708 26.7775C65.1 28.0731 65.7197 28.783 66.2773 32.05C66.4618 32.9746 66.4618 33.9853 66.544 34.9319H66.6262C67.3061 32.7078 67.5748 30.3012 67.1617 27.8705C67.1035 27.4674 66.4217 26.6151 66.4818 26.4506C66.564 26.3263 66.915 26.1979 67.1236 26.3062C67.3622 26.7956 67.4906 27.0262 67.8917 27.4073C68.7942 27.8485 69.5081 29.3526 70.8679 28.7369C71.9188 28.4281 73.7799 26.4887 72.0572 23.673C71.275 23.1195 71.2369 22.2029 70.8037 21.501C70.3705 20.9856 70.3545 20.2756 70.3946 19.6359C70.8258 18.7514 72.8072 17.496 72.6809 17.2894C72.7009 17.0227 72.1755 16.4351 72.0732 16.2706C71.7042 14.8286 70.9922 13.6654 69.5101 13.0477C68.9947 12.039 67.4304 11.7722 67.9659 10.4125C68.3991 9.73263 68.7079 8.62157 69.7167 8.60151C69.6967 9.34155 68.9546 10.0435 69.3256 10.948C69.9855 11.4012 70.6613 11.678 71.5097 11.9287C71.8987 12.0189 72.1253 12.061 72.4141 12.2255C72.8253 12.5764 73.3868 12.8973 73.7739 13.3787C74.8027 14.6341 74.8428 16.3007 75.4405 17.7647C75.7152 20.1393 73.8742 20.6467 73.3607 20.7289C72.8253 20.6667 72.2918 20.5845 71.7343 20.5223C71.5899 21.1179 72.2978 21.3546 72.6207 21.7978C73.7318 23.0954 74.8428 24.3709 75.0494 26.0375C75.625 26.5128 75.3783 27.6038 75.256 28.2616C75.0434 29.5371 73.834 30.4637 73.5051 30.6923C72.0231 31.1034 70.0877 30.9791 69.0569 29.5572C69.0168 29.5171 68.9747 29.4549 68.9125 29.4749L68.7079 29.6815C69.3658 31.2679 68.1304 32.3789 67.9659 33.7988C66.6483 36.5985 67.0594 40.4491 63.9308 42.22H63.8686C63.9308 41.5201 64.5064 40.8623 64.6708 40.1202C65.2484 37.8139 65.2685 34.9319 63.1266 33.3255C62.1499 32.1543 61.2193 30.4496 60.2246 27.1285C59.627 25.151 60.5756 23.3 61.4399 21.6735L61.2334 21.4669C60.0802 22.1468 58.9892 23.7933 57.5272 22.8888C57.2384 22.209 56.6628 21.5692 56.9917 20.7269C57.0539 18.9981 58.0225 17.6805 59.0093 16.3408C59.657 15.5446 61.2935 12.5323 62.2422 12.1613C62.7576 11.7281 63.9308 9.91713 64.4041 9.87702C65.2264 8.93042 66.2151 8.29266 66.9571 7.24177C67.7593 6.21094 68.7882 5.55313 69.7147 4.68875C70.9381 3.52154 72.5044 2.66117 74.7486 1.73663C76.5595 1.28338 78.3926 0.705792 80.348 0.790024C80.5966 0.934421 80.7812 1.20116 81.09 1.20116L81.084 1.19915Z" fill="white"/>
<path d="M77.5342 28.7449V23.9417C77.5342 23.7893 77.5883 23.701 77.6966 23.679C77.8049 23.6569 77.8851 23.7091 77.9393 23.8334C78.2622 24.5714 78.6152 25.2232 78.9982 25.7888C79.3813 26.3564 79.8024 26.8297 80.2657 27.2127C80.729 27.5958 81.2384 27.8846 81.7979 28.0831C82.3554 28.2816 82.9772 28.3799 83.659 28.3799C84.0461 28.3799 84.4151 28.3238 84.7661 28.2115C85.117 28.0991 85.4259 27.9207 85.6906 27.678C85.9553 27.4353 86.1679 27.1245 86.3244 26.7474C86.4808 26.3704 86.561 25.9151 86.561 25.3857C86.561 24.8823 86.4688 24.4391 86.2843 24.056C86.0997 23.673 85.8531 23.334 85.5422 23.0372C85.2314 22.7404 84.8784 22.4817 84.4833 22.2611C84.0882 22.0405 83.6831 21.8399 83.27 21.6614C82.8107 21.4629 82.3595 21.2563 81.9142 21.0397C81.469 20.8231 81.0438 20.5805 80.6387 20.3117C80.2336 20.043 79.8626 19.7321 79.5257 19.3812C79.1887 19.0302 78.9019 18.6251 78.6693 18.1678C78.4627 17.7727 78.3023 17.3676 78.19 16.9525C78.0777 16.5393 78.0215 16.1122 78.0215 15.671C78.0215 15.0332 78.1338 14.3894 78.3585 13.7416C78.5831 13.0939 78.9521 12.5103 79.4655 11.9868C79.9789 11.4654 80.6467 11.0402 81.469 10.7113C82.2913 10.3824 83.3061 10.218 84.5114 10.218C85.2755 10.218 85.9373 10.2781 86.4948 10.4005C87.0524 10.5228 87.5176 10.6572 87.8907 10.8056C88.2637 10.954 88.5485 11.0944 88.747 11.2247C88.9456 11.3551 89.0579 11.4333 89.084 11.4614C89.1923 11.5416 89.2464 11.6359 89.2464 11.7442V14.1989C89.2464 14.2611 89.2284 14.3132 89.1923 14.3533C89.1562 14.3934 89.116 14.4155 89.0699 14.4215C89.0258 14.4255 88.9797 14.4175 88.9355 14.3954C88.8914 14.3734 88.8553 14.3313 88.8272 14.2671C88.6568 13.862 88.4542 13.4589 88.2196 13.0598C87.9849 12.6607 87.6901 12.3037 87.3351 11.9948C86.9802 11.684 86.545 11.4333 86.0336 11.2388C85.5222 11.0442 84.9045 10.948 84.1845 10.948C83.2499 10.948 82.5199 11.1686 81.9985 11.6098C81.477 12.051 81.2163 12.6486 81.2163 13.4047C81.2163 13.8359 81.2885 14.215 81.4329 14.5378C81.5773 14.8607 81.822 15.1656 82.1689 15.4483C82.5159 15.7311 82.9772 16.0159 83.5527 16.2987C84.1283 16.5815 84.8523 16.8983 85.7247 17.2493C86.571 17.5922 87.3171 17.9593 87.9649 18.3563C88.6127 18.7534 89.1542 19.1946 89.5914 19.686C90.0266 20.1753 90.3555 20.7309 90.5761 21.3526C90.7967 21.9723 90.907 22.6842 90.907 23.4845C90.907 24.2847 90.7646 25.0187 90.4818 25.7106C90.199 26.4025 89.7638 27.0081 89.1802 27.5256C88.5946 28.043 87.8586 28.4501 86.9681 28.7469C86.0777 29.0437 85.0288 29.1922 83.8255 29.1922C83.0614 29.1922 82.3033 29.0959 81.5512 28.9014C80.7992 28.7088 80.0732 28.4942 79.3732 28.2616C79.275 28.2255 79.1667 28.1894 79.0504 28.1533C78.934 28.1172 78.8217 28.0991 78.7134 28.0991C78.4968 28.0991 78.3404 28.1693 78.2401 28.3077C78.1419 28.4461 78.0476 28.6206 77.9573 28.8272C77.9032 28.9535 77.821 29.0076 77.7087 28.9896C77.5964 28.9715 77.5402 28.8913 77.5402 28.7469L77.5342 28.7449Z" fill="white"/>
<path d="M105.882 28.422C105.954 28.4401 106.007 28.4702 106.037 28.5103C106.069 28.5504 106.079 28.5945 106.071 28.6386C106.061 28.6848 106.037 28.7249 105.996 28.761C105.956 28.7971 105.9 28.8151 105.828 28.8151H99.0554C98.9832 28.8151 98.927 28.7971 98.8869 28.761C98.8468 28.7249 98.8208 28.6848 98.8127 28.6386C98.8027 28.5945 98.8147 28.5504 98.8468 28.5103C98.8789 28.4702 98.9291 28.4401 99.0013 28.422C99.0735 28.414 99.1978 28.3839 99.3723 28.3338C99.5468 28.2837 99.7273 28.1994 99.9118 28.0771C100.096 27.9548 100.261 27.7843 100.405 27.5637C100.55 27.3431 100.622 27.0523 100.622 26.6933V20.8793C100.614 20.5023 100.584 20.1132 100.533 19.7121C100.483 19.311 100.381 18.948 100.223 18.6191C100.064 18.2902 99.8355 18.0214 99.5347 17.8088C99.2339 17.5983 98.8308 17.492 98.3274 17.492C97.824 17.492 97.4008 17.5963 97.1141 17.8028C96.8253 18.0094 96.6127 18.2661 96.4723 18.5709C96.3319 18.8778 96.2477 19.2027 96.2156 19.5496C96.1835 19.8966 96.1675 20.2034 96.1675 20.4742V26.6933C96.1675 27.0523 96.2397 27.3431 96.3841 27.5637C96.5285 27.7843 96.6929 27.9548 96.8774 28.0771C97.0619 28.1994 97.2424 28.2837 97.4169 28.3338C97.5914 28.3839 97.7157 28.412 97.7879 28.422C97.8601 28.4401 97.9123 28.4702 97.9423 28.5103C97.9744 28.5504 97.9845 28.5945 97.9764 28.6386C97.9684 28.6848 97.9423 28.7249 97.9022 28.761C97.8621 28.7971 97.806 28.8151 97.7338 28.8151H90.9611C90.8889 28.8151 90.8328 28.7971 90.7927 28.761C90.7526 28.7249 90.7265 28.6848 90.7185 28.6386C90.7084 28.5945 90.7205 28.5504 90.7526 28.5103C90.7846 28.4702 90.8348 28.4401 90.907 28.422C90.9792 28.414 91.1035 28.3839 91.278 28.3338C91.4525 28.2837 91.633 28.1994 91.8175 28.0771C92.002 27.9548 92.1665 27.7843 92.3109 27.5637C92.4552 27.3431 92.5274 27.0523 92.5274 26.6933V11.5015C92.5274 11.3852 92.4733 11.313 92.365 11.2849C92.3469 11.2849 92.2808 11.2709 92.1685 11.2448C92.0561 11.2187 91.9278 11.1866 91.7834 11.1505C91.639 11.1144 91.5066 11.0823 91.3863 11.0563C91.264 11.0302 91.1898 11.0121 91.1637 11.0021C91.0474 10.976 90.9852 10.9139 90.9812 10.8196C90.9772 10.7254 91.0414 10.6592 91.1777 10.6231C91.5287 10.5429 91.9077 10.4326 92.3169 10.2922C92.726 10.1538 93.1371 9.99535 93.5523 9.81886C93.9654 9.64438 94.3665 9.45386 94.7536 9.25331C95.1406 9.05075 95.4856 8.84619 95.7924 8.63962C95.8726 8.58547 95.9569 8.56341 96.0411 8.57143C96.1273 8.58146 96.1695 8.64764 96.1695 8.77399V17.6243C96.358 17.4539 96.5746 17.2894 96.8172 17.131C97.0599 16.9745 97.3327 16.8362 97.6335 16.7198C97.9343 16.6035 98.2712 16.5093 98.6463 16.4371C99.0193 16.3649 99.4304 16.3288 99.8817 16.3288C100.62 16.3288 101.237 16.409 101.737 16.5714C102.236 16.7339 102.649 16.9485 102.978 17.2192C103.307 17.49 103.558 17.7988 103.734 18.1498C103.911 18.5007 104.035 18.8658 104.111 19.2428C104.188 19.6198 104.234 19.9969 104.246 20.3699C104.26 20.7429 104.266 21.0919 104.266 21.4148V26.6893C104.266 27.0483 104.338 27.3391 104.482 27.5597C104.627 27.7803 104.791 27.9507 104.976 28.0731C105.16 28.1954 105.341 28.2796 105.515 28.3298C105.69 28.3799 105.814 28.408 105.886 28.418L105.882 28.422Z" fill="white"/>
<path d="M117.915 27.5717C118.042 27.5456 118.14 27.5697 118.212 27.6459C118.284 27.7221 118.288 27.8244 118.226 27.9487C118.172 28.047 118.084 28.1653 117.963 28.2997C117.841 28.4341 117.681 28.5604 117.478 28.6767C117.276 28.7931 117.029 28.8933 116.736 28.9736C116.443 29.0538 116.1 29.0959 115.703 29.0959C115.154 29.0959 114.692 28.9856 114.319 28.765C113.946 28.5444 113.688 28.2917 113.543 28.0029C113.507 27.9307 113.455 27.9006 113.389 27.9086C113.323 27.9187 113.265 27.9447 113.22 27.9889C113.192 28.0149 113.11 28.0891 112.972 28.2115C112.831 28.3338 112.635 28.4622 112.378 28.6025C112.121 28.7409 111.813 28.8673 111.454 28.9796C111.095 29.0919 110.679 29.148 110.212 29.148C109.412 29.148 108.74 29.0357 108.195 28.8111C107.649 28.5865 107.21 28.2957 106.873 27.9407C106.536 27.5857 106.293 27.1846 106.145 26.7394C105.997 26.2942 105.922 25.851 105.922 25.4098C105.922 24.6998 106.123 24.0781 106.524 23.5486C106.923 23.0172 107.444 22.6221 108.082 22.3614C108.423 22.227 108.782 22.1307 109.155 22.0706C109.528 22.0124 109.899 21.9522 110.268 21.8881C110.637 21.8259 110.998 21.7457 111.355 21.6514C111.712 21.5572 112.045 21.4027 112.36 21.1861C112.693 20.9615 112.926 20.6727 113.056 20.3238C113.186 19.9728 113.252 19.5998 113.252 19.2047C113.252 18.9179 113.214 18.6411 113.138 18.3744C113.062 18.1097 112.954 17.877 112.813 17.6805C112.673 17.484 112.512 17.3255 112.328 17.2072C112.143 17.0889 111.943 17.0327 111.728 17.0327C111.341 17.0327 111.058 17.131 110.878 17.3295C110.697 17.5281 110.557 17.7667 110.453 18.0455C110.348 18.3243 110.252 18.6151 110.162 18.9159C110.072 19.2167 109.927 19.4754 109.731 19.692C109.568 19.8625 109.36 19.9908 109.103 20.0771C108.846 20.1633 108.602 20.2054 108.367 20.2054C108.132 20.2054 107.908 20.1653 107.719 20.0831C107.531 20.0029 107.368 19.8926 107.234 19.7522C107.1 19.6138 106.997 19.4514 106.931 19.2669C106.865 19.0823 106.831 18.8878 106.831 18.6792C106.831 18.4005 106.899 18.1217 107.033 17.8429C107.168 17.5642 107.408 17.3115 107.755 17.0869C108.102 16.8622 108.568 16.6797 109.151 16.5394C109.737 16.401 110.479 16.3308 111.377 16.3308C112.376 16.3308 113.226 16.4311 113.934 16.6336C114.642 16.8362 115.216 17.131 115.661 17.518C116.106 17.9051 116.429 18.3844 116.632 18.954C116.834 19.5256 116.935 20.1754 116.935 20.9034C116.935 21.7758 116.909 22.594 116.854 23.3581C116.8 24.1222 116.762 24.8001 116.74 25.3877C116.718 25.9773 116.728 26.4627 116.774 26.8437C116.818 27.2268 116.945 27.4614 117.153 27.5517C117.243 27.5978 117.356 27.6178 117.49 27.6118C117.624 27.6078 117.769 27.5918 117.921 27.5637L117.915 27.5717ZM113.234 21.5411C113.234 21.487 113.212 21.4509 113.166 21.4328C113.122 21.4148 113.08 21.4288 113.044 21.4729C112.972 21.5531 112.908 21.6314 112.847 21.7016C112.789 21.7738 112.711 21.86 112.611 21.9583C112.44 22.1388 112.264 22.3072 112.085 22.4637C111.905 22.6221 111.726 22.7805 111.546 22.943C111.365 23.0874 111.189 23.2298 111.012 23.3742C110.836 23.5186 110.673 23.675 110.519 23.8475C110.284 24.1182 110.112 24.411 110 24.7319C109.887 25.0508 109.831 25.3917 109.831 25.7507C109.831 25.9934 109.867 26.238 109.939 26.4867C110.012 26.7334 110.122 26.954 110.27 27.1485C110.419 27.3431 110.607 27.4995 110.836 27.6218C111.066 27.7442 111.341 27.8043 111.666 27.8043C111.991 27.8043 112.254 27.7362 112.456 27.6018C112.659 27.4674 112.815 27.305 112.93 27.1165C113.042 26.9279 113.12 26.7374 113.166 26.5429C113.212 26.3483 113.234 26.1979 113.234 26.0916V21.5451V21.5411Z" fill="white"/>
<path d="M126.902 16.3328C127.279 16.3328 127.6 16.3809 127.861 16.4752C128.121 16.5694 128.334 16.6958 128.494 16.8522C128.657 17.0107 128.773 17.1952 128.845 17.4057C128.918 17.6163 128.954 17.8389 128.954 18.0736C128.954 18.5048 128.817 18.8417 128.543 19.0844C128.268 19.327 127.901 19.4494 127.444 19.4494C127.093 19.4494 126.818 19.3872 126.621 19.2608C126.423 19.1345 126.254 18.9981 126.116 18.8497C125.977 18.7013 125.849 18.5649 125.731 18.4386C125.612 18.3122 125.47 18.2501 125.3 18.2501C125.147 18.2501 124.983 18.3022 124.806 18.4045C124.632 18.5088 124.469 18.7033 124.321 18.9921C124.173 19.2809 124.048 19.676 123.95 20.1794C123.852 20.6828 123.802 21.3345 123.802 22.1347V26.8036C123.802 27.1626 123.862 27.4474 123.984 27.6539C124.106 27.8605 124.245 28.0189 124.401 28.1272C124.56 28.2355 124.714 28.3097 124.866 28.3498C125.019 28.39 125.131 28.416 125.203 28.4241C125.276 28.4421 125.328 28.4722 125.358 28.5123C125.39 28.5524 125.4 28.5965 125.392 28.6406C125.382 28.6868 125.358 28.7269 125.318 28.763C125.278 28.7991 125.221 28.8171 125.149 28.8171H118.808C118.736 28.8171 118.679 28.7991 118.639 28.763C118.599 28.7269 118.573 28.6868 118.565 28.6406C118.555 28.5965 118.565 28.5524 118.599 28.5123C118.631 28.4722 118.681 28.4421 118.754 28.4241C118.826 28.416 118.938 28.39 119.091 28.3498C119.243 28.3097 119.399 28.2355 119.556 28.1272C119.712 28.0189 119.853 27.8625 119.975 27.6539C120.097 27.4474 120.157 27.1646 120.157 26.8036V19.1947C120.157 19.0783 120.103 19.0061 119.995 18.9781C119.977 18.9781 119.911 18.964 119.798 18.938C119.686 18.9119 119.558 18.8798 119.413 18.8437C119.269 18.8076 119.137 18.7755 119.016 18.7494C118.896 18.7234 118.82 18.7053 118.794 18.6953C118.677 18.6692 118.615 18.607 118.611 18.5128C118.607 18.4185 118.671 18.3523 118.808 18.3162C119.159 18.236 119.538 18.1257 119.947 17.9853C120.356 17.847 120.767 17.6885 121.182 17.512C121.595 17.3376 121.997 17.147 122.384 16.9465C122.771 16.7439 123.118 16.5394 123.422 16.3328C123.503 16.2786 123.587 16.2566 123.671 16.2646C123.757 16.2746 123.8 16.3408 123.8 16.4672V18.3965C124.114 17.7046 124.542 17.1871 125.081 16.8442C125.621 16.5033 126.228 16.3308 126.902 16.3308V16.3328Z" fill="white"/>
<path d="M132.501 21.6614C132.357 21.6614 132.285 21.7376 132.285 21.8901C132.285 22.8066 132.365 23.5948 132.528 24.2506C132.69 24.9084 132.925 25.4438 133.235 25.863C133.546 26.2821 133.933 26.589 134.397 26.7875C134.86 26.9861 135.397 27.0844 136.009 27.0844C136.476 27.0844 136.894 27.0342 137.257 26.9359C137.62 26.8377 137.938 26.7234 138.207 26.591C138.476 26.4586 138.696 26.3363 138.869 26.22C139.041 26.1037 139.166 26.0274 139.246 25.9913C139.372 25.9372 139.471 25.9492 139.543 26.0254C139.615 26.1017 139.615 26.216 139.543 26.3704C139.517 26.4245 139.455 26.5308 139.36 26.6873C139.266 26.8457 139.128 27.0262 138.949 27.2328C138.769 27.4393 138.544 27.6559 138.275 27.8805C138.005 28.1052 137.684 28.3117 137.311 28.5023C136.938 28.6908 136.51 28.8472 136.029 28.9675C135.548 29.0879 135.01 29.15 134.417 29.15C133.516 29.15 132.704 29.0076 131.974 28.7249C131.246 28.4421 130.622 28.029 130.105 27.4895C129.587 26.95 129.186 26.2942 128.904 25.5201C128.621 24.7459 128.478 23.8735 128.478 22.9029C128.478 21.8419 128.653 20.9013 129.004 20.0831C129.355 19.2648 129.814 18.579 130.38 18.0254C130.947 17.4719 131.589 17.0528 132.309 16.764C133.029 16.4772 133.761 16.3328 134.509 16.3328C135.211 16.3328 135.829 16.429 136.364 16.6236C136.9 16.8181 137.363 17.0688 137.754 17.3797C138.145 17.6905 138.468 18.0355 138.725 18.4185C138.981 18.8016 139.188 19.1806 139.346 19.5597C139.503 19.9367 139.613 20.2937 139.677 20.6246C139.739 20.9575 139.771 21.2222 139.771 21.4208C139.771 21.511 139.741 21.5732 139.683 21.6093C139.625 21.6454 139.547 21.6634 139.447 21.6634H132.497L132.501 21.6614ZM132.353 20.771C132.335 20.8873 132.389 20.9455 132.515 20.9455C132.542 20.9455 132.632 20.9455 132.786 20.9395C132.939 20.9354 133.125 20.9274 133.346 20.9194C133.566 20.9114 133.803 20.9013 134.054 20.8933C134.304 20.8853 134.547 20.8753 134.776 20.8673C135.004 20.8592 135.203 20.8512 135.369 20.8472C135.536 20.8432 135.642 20.8352 135.686 20.8271C135.831 20.8191 135.981 20.7549 136.137 20.6386C136.294 20.5223 136.374 20.3197 136.374 20.031C136.374 19.7702 136.338 19.4694 136.266 19.1265C136.194 18.7855 136.079 18.4606 135.923 18.1558C135.764 17.851 135.566 17.5922 135.323 17.3797C135.081 17.1691 134.784 17.0628 134.433 17.0628C134.154 17.0628 133.911 17.137 133.705 17.2854C133.498 17.4338 133.32 17.6263 133.171 17.865C133.023 18.1037 132.899 18.3664 132.8 18.6552C132.702 18.944 132.62 19.2247 132.558 19.4975C132.495 19.7722 132.447 20.0229 132.415 20.2536C132.383 20.4822 132.363 20.6567 132.355 20.773L132.353 20.771Z" fill="white"/>
<path d="M142.186 14.6C143.197 14.6 143.981 15.3862 143.981 16.3849C143.981 17.3837 143.195 18.1919 142.174 18.1919C141.153 18.1919 140.345 17.4057 140.345 16.3849C140.345 15.3641 141.153 14.6 142.174 14.6H142.186ZM142.164 14.9149C141.356 14.9149 140.738 15.5767 140.738 16.3849C140.738 17.1932 141.356 17.867 142.186 17.867C142.982 17.879 143.59 17.2152 143.59 16.397C143.59 15.5787 142.984 14.9149 142.176 14.9149H142.164ZM141.849 17.3737H141.5V15.4985C141.691 15.4644 141.893 15.4423 142.152 15.4423C142.467 15.4423 142.623 15.4985 142.736 15.5887C142.848 15.667 142.926 15.8134 142.926 15.9918C142.926 16.2165 142.758 16.3629 142.567 16.4291V16.4511C142.724 16.5193 142.814 16.6637 142.87 16.9104C142.926 17.1911 142.97 17.3035 143.016 17.3696H142.657C142.601 17.3015 142.557 17.133 142.501 16.8863C142.457 16.6737 142.332 16.5835 142.074 16.5835H141.849V17.3696V17.3737ZM141.849 16.3187H142.084C142.33 16.3187 142.567 16.2405 142.567 16.0279C142.567 15.8475 142.443 15.7131 142.118 15.7131C141.984 15.7131 141.905 15.7251 141.849 15.7351V16.3187Z" fill="white"/>
<path d="M0.0169678 19.8124C0.0169678 18.94 0.133288 18.0976 0.367933 17.2834C0.602579 16.4692 0.935495 15.7071 1.36668 14.9971C1.79787 14.2872 2.3173 13.6374 2.92497 13.0477C3.53264 12.4581 4.20449 11.9547 4.94252 11.5356C5.68055 11.1184 6.47674 10.7935 7.33109 10.5649C8.18544 10.3363 9.07589 10.22 10.0024 10.22C10.7665 10.22 11.4604 10.2801 12.0802 10.4025C12.6999 10.5248 13.2353 10.6592 13.6866 10.8076C14.1358 10.956 14.4908 11.0964 14.7515 11.2267C15.0122 11.3571 15.1566 11.4353 15.1827 11.4634C15.291 11.5436 15.3451 11.6379 15.3451 11.7462V14.58C15.3451 14.6421 15.3271 14.6923 15.291 14.7284C15.2549 14.7645 15.2148 14.7865 15.1687 14.7966C15.1225 14.8066 15.0784 14.7966 15.0343 14.7705C14.9882 14.7444 14.9541 14.7023 14.926 14.6481C14.7555 14.243 14.5429 13.8259 14.2922 13.3927C14.0395 12.9615 13.7207 12.5704 13.3336 12.2195C12.9465 11.8685 12.4873 11.5817 11.9578 11.3551C11.4264 11.1305 10.8026 11.0182 10.0827 11.0182C9.21026 11.0182 8.46621 11.2448 7.85052 11.7C7.23482 12.1553 6.73144 12.775 6.34036 13.5612C5.94929 14.3473 5.6625 15.2699 5.48401 16.3268C5.30351 17.3837 5.21326 18.5108 5.21326 19.7061C5.21326 20.9013 5.30351 22.0405 5.48401 23.0934C5.6645 24.1463 5.93525 25.0648 6.30025 25.853C6.66526 26.6411 7.12051 27.2608 7.67002 27.7141C8.21753 28.1693 8.8613 28.396 9.59933 28.396C10.2912 28.396 10.8347 28.2476 11.2258 27.9507C11.6169 27.6539 11.9097 27.2689 12.1022 26.7976C12.2947 26.3263 12.4151 25.8008 12.4592 25.2252C12.5033 24.6497 12.5274 24.0821 12.5274 23.5246V22.4576C12.5274 22.0525 12.4371 21.7196 12.2566 21.4589C12.0761 21.1982 11.8676 20.9896 11.6289 20.8312C11.3903 20.6747 11.1536 20.5644 10.921 20.5002C10.6863 20.4381 10.5159 20.398 10.4076 20.3779C10.3273 20.3699 10.2652 20.3398 10.2251 20.2897C10.1849 20.2395 10.1669 20.1914 10.1709 20.1413C10.1749 20.0911 10.199 20.047 10.2451 20.0069C10.2892 19.9668 10.3574 19.9467 10.4477 19.9467H16.5464C16.6808 19.9467 16.7871 19.9848 16.8633 20.061C16.9395 20.1372 16.9776 20.2395 16.9776 20.3639V27.2308C16.9776 27.3752 16.9516 27.4774 16.8974 27.5416C16.8433 27.6038 16.767 27.6539 16.6688 27.69C15.9769 27.8966 15.3451 28.0911 14.7736 28.2696C14.202 28.4501 13.6404 28.6065 13.0869 28.7429C12.5334 28.8773 11.9618 28.9856 11.3742 29.0658C10.7846 29.146 10.1268 29.1881 9.39677 29.1881C8.02099 29.1881 6.75952 28.9455 5.61236 28.4601C4.4652 27.9748 3.47849 27.309 2.65021 26.4626C1.82193 25.6163 1.17816 24.6256 0.714888 23.4885C0.251613 22.3513 0.0209788 21.126 0.0209788 19.8124H0.0169678Z" fill="white"/>
<path d="M26.1649 16.3328C26.5419 16.3328 26.8628 16.3809 27.1235 16.4752C27.3842 16.5694 27.5968 16.6958 27.7573 16.8522C27.9197 17.0107 28.036 17.1952 28.1082 17.4057C28.1804 17.6163 28.2165 17.8389 28.2165 18.0736C28.2165 18.5048 28.0802 18.8417 27.8054 19.0844C27.5306 19.327 27.1636 19.4494 26.7064 19.4494C26.3554 19.4494 26.0807 19.3872 25.8841 19.2608C25.6856 19.1345 25.5171 18.9981 25.3787 18.8497C25.2383 18.7013 25.112 18.5649 24.9937 18.4386C24.8774 18.3122 24.733 18.2501 24.5625 18.2501C24.4101 18.2501 24.2456 18.3022 24.0691 18.4045C23.8946 18.5088 23.7322 18.7033 23.5838 18.9921C23.4354 19.2809 23.311 19.676 23.2128 20.1794C23.1145 20.6828 23.0644 21.3345 23.0644 22.1347V26.8036C23.0644 27.1626 23.1245 27.4474 23.2469 27.6539C23.3692 27.8605 23.5076 28.0189 23.666 28.1272C23.8224 28.2355 23.9789 28.3097 24.1313 28.3498C24.2837 28.39 24.396 28.416 24.4682 28.4241C24.5404 28.4421 24.5926 28.4722 24.6227 28.5123C24.6547 28.5524 24.6648 28.5965 24.6567 28.6406C24.6467 28.6868 24.6226 28.7269 24.5825 28.763C24.5424 28.7991 24.4863 28.8171 24.4141 28.8171H18.0726C18.0004 28.8171 17.9443 28.7991 17.9042 28.763C17.8641 28.7269 17.838 28.6868 17.83 28.6406C17.8219 28.5965 17.832 28.5524 17.8641 28.5123C17.8961 28.4722 17.9463 28.4421 18.0185 28.4241C18.0907 28.416 18.203 28.39 18.3554 28.3498C18.5078 28.3097 18.6643 28.2355 18.8207 28.1272C18.9771 28.0189 19.1175 27.8625 19.2398 27.6539C19.3622 27.4474 19.4223 27.1646 19.4223 26.8036V19.1947C19.4223 19.0783 19.3682 19.0061 19.2599 18.9781C19.2418 18.9781 19.1757 18.964 19.0634 18.938C18.951 18.9119 18.8227 18.8798 18.6783 18.8437C18.5339 18.8076 18.4015 18.7755 18.2812 18.7494C18.1589 18.7234 18.0847 18.7053 18.0586 18.6953C17.9423 18.6692 17.8801 18.607 17.8761 18.5128C17.8721 18.4185 17.9363 18.3523 18.0726 18.3162C18.4236 18.236 18.8026 18.1257 19.2118 17.9853C19.6209 17.847 20.032 17.6885 20.4472 17.512C20.8603 17.3376 21.2614 17.147 21.6485 16.9465C22.0355 16.7439 22.3805 16.5394 22.6873 16.3328C22.7675 16.2786 22.8518 16.2566 22.936 16.2646C23.0222 16.2746 23.0644 16.3408 23.0644 16.4672V18.3965C23.3792 17.7046 23.8064 17.1871 24.3459 16.8442C24.8854 16.5013 25.493 16.3308 26.1669 16.3308L26.1649 16.3328Z" fill="white"/>
<path d="M34.0305 26.6933C34.0305 27.0523 34.1027 27.3431 34.2471 27.5637C34.3915 27.7843 34.556 27.9548 34.7405 28.0771C34.925 28.1994 35.1055 28.2837 35.2799 28.3338C35.4544 28.3839 35.5788 28.412 35.651 28.422C35.7232 28.4401 35.7753 28.4702 35.8054 28.5103C35.8375 28.5504 35.8475 28.5945 35.8395 28.6386C35.8295 28.6848 35.8054 28.7249 35.7653 28.761C35.7252 28.7971 35.669 28.8151 35.5968 28.8151H28.8242C28.752 28.8151 28.6958 28.7971 28.6557 28.761C28.6156 28.7249 28.5895 28.6848 28.5815 28.6386C28.5715 28.5945 28.5815 28.5504 28.6156 28.5103C28.6477 28.4702 28.6978 28.4401 28.77 28.422C28.8422 28.414 28.9666 28.3839 29.1411 28.3338C29.3155 28.2837 29.496 28.1994 29.6805 28.0771C29.8651 27.9548 30.0295 27.7843 30.1739 27.5637C30.3183 27.3431 30.3905 27.0523 30.3905 26.6933V19.1926C30.3905 19.0763 30.3363 19.0041 30.2281 18.9761C30.21 18.9761 30.1438 18.962 30.0315 18.9359C29.9192 18.9099 29.7908 18.8778 29.6465 18.8417C29.5021 18.8056 29.3697 18.7735 29.2494 18.7474C29.129 18.7214 29.0528 18.7033 29.0267 18.6933C28.9104 18.6672 28.8483 18.605 28.8442 18.5108C28.8402 18.4165 28.9044 18.3503 29.0408 18.3142C29.3917 18.234 29.7708 18.1237 30.1799 17.9833C30.589 17.8449 31.0002 17.6865 31.4153 17.51C31.8285 17.3355 32.2296 17.145 32.6166 16.9445C33.0037 16.7419 33.3506 16.5373 33.6555 16.3308C33.7357 16.2766 33.8199 16.2546 33.9042 16.2626C33.9904 16.2726 34.0325 16.3388 34.0325 16.4651V26.6913L34.0305 26.6933ZM34.1388 11.5015C34.0305 11.2408 33.8801 11.0141 33.6876 10.8196C33.493 10.6271 33.2644 10.4727 32.9997 10.3604C32.7349 10.248 32.4401 10.1919 32.1152 10.1919C31.7903 10.1919 31.5036 10.25 31.2248 10.3664C30.946 10.4827 30.7054 10.6411 30.5028 10.8397C30.3002 11.0382 30.1398 11.2688 30.0235 11.5336C29.9072 11.7983 29.849 12.0811 29.849 12.3779C29.849 12.6747 29.9032 12.9535 30.0115 13.2142C30.1198 13.4749 30.2702 13.6995 30.4627 13.8881C30.6552 14.0766 30.8859 14.227 31.1506 14.3393C31.4153 14.4516 31.7061 14.5078 32.021 14.5078C32.3358 14.5078 32.6447 14.4496 32.9174 14.3333C33.1922 14.217 33.4329 14.0605 33.6394 13.868C33.846 13.6755 34.0085 13.4448 34.1248 13.1801C34.2411 12.9154 34.2993 12.6346 34.2993 12.3378C34.2993 12.041 34.2451 11.7622 34.1368 11.5015H34.1388Z" fill="white"/>
<path d="M39.8987 21.6614C39.7543 21.6614 39.6821 21.7376 39.6821 21.8901C39.6821 22.8066 39.7623 23.5948 39.9247 24.2506C40.0872 24.9084 40.3218 25.4438 40.6327 25.863C40.9436 26.2821 41.3306 26.589 41.7939 26.7875C42.2572 26.9861 42.7946 27.0844 43.4063 27.0844C43.8736 27.0844 44.2908 27.0342 44.6538 26.9359C45.0168 26.8377 45.3356 26.7234 45.6044 26.591C45.8731 26.4586 46.0937 26.3363 46.2662 26.22C46.4367 26.1037 46.563 26.0274 46.6432 25.9913C46.7696 25.9372 46.8678 25.9492 46.94 26.0254C47.0122 26.1017 47.0122 26.216 46.94 26.3704C46.914 26.4245 46.8518 26.5308 46.7575 26.6873C46.6633 26.8457 46.5269 27.0262 46.3464 27.2328C46.1659 27.4393 45.9413 27.6559 45.6726 27.8805C45.4018 28.1052 45.0809 28.3117 44.7079 28.5023C44.3349 28.6908 43.9077 28.8472 43.4264 28.9675C42.9451 29.0899 42.4076 29.15 41.8139 29.15C40.9135 29.15 40.1012 29.0076 39.3712 28.7249C38.6432 28.4421 38.0195 28.029 37.5021 27.4895C36.9847 26.95 36.5856 26.2942 36.3008 25.5201C36.018 24.7459 35.8756 23.8735 35.8756 22.9029C35.8756 21.8419 36.0501 20.9013 36.4011 20.0831C36.752 19.2648 37.2113 18.579 37.7768 18.0254C38.3444 17.4719 38.9862 17.0528 39.7061 16.764C40.4261 16.4772 41.1581 16.3328 41.9062 16.3328C42.6081 16.3328 43.2258 16.429 43.7613 16.6236C44.2968 16.8161 44.7601 17.0688 45.1511 17.3797C45.5422 17.6905 45.8671 18.0355 46.1218 18.4185C46.3785 18.8016 46.5851 19.1806 46.7415 19.5597C46.8979 19.9367 47.0082 20.2937 47.0724 20.6246C47.1346 20.9575 47.1667 21.2222 47.1667 21.4208C47.1667 21.511 47.1366 21.5732 47.0784 21.6093C47.0203 21.6454 46.9421 21.6634 46.8418 21.6634H39.8927L39.8987 21.6614ZM39.7503 20.771C39.7322 20.8873 39.7864 20.9455 39.9127 20.9455C39.9388 20.9455 40.029 20.9455 40.1835 20.9395C40.3359 20.9354 40.5224 20.9274 40.743 20.9194C40.9636 20.9114 41.2003 20.9013 41.4509 20.8933C41.7016 20.8853 41.9423 20.8753 42.1729 20.8673C42.4016 20.8592 42.6001 20.8512 42.7666 20.8472C42.933 20.8432 43.0393 20.8352 43.0834 20.8271C43.2278 20.8191 43.3783 20.7549 43.5347 20.6386C43.6911 20.5223 43.7713 20.3197 43.7713 20.031C43.7713 19.7702 43.7352 19.4694 43.663 19.1265C43.5908 18.7855 43.4765 18.4606 43.3181 18.1558C43.1596 17.851 42.9611 17.5922 42.7184 17.3797C42.4758 17.1691 42.1789 17.0628 41.828 17.0628C41.5492 17.0628 41.3066 17.137 41.1 17.2854C40.8934 17.4338 40.7149 17.6263 40.5665 17.865C40.4181 18.1037 40.2938 18.3664 40.1955 18.6552C40.0972 18.944 40.015 19.2247 39.9528 19.4975C39.8907 19.7722 39.8425 20.0229 39.8104 20.2536C39.7783 20.4822 39.7583 20.6567 39.7503 20.773V20.771Z" fill="white"/>
<path d="M54.3344 8.64162C54.8559 8.64162 55.3372 8.70179 55.7784 8.82413C56.2196 8.94646 56.5987 9.10891 56.9175 9.31748C57.2364 9.52405 57.4871 9.76672 57.6656 10.0455C57.8461 10.3243 57.9343 10.6211 57.9343 10.9359C57.9343 11.4032 57.7939 11.7903 57.5172 12.0971C57.2384 12.402 56.8554 12.5564 56.37 12.5564C55.8847 12.5564 55.4936 12.418 55.1968 12.1372C54.9 11.8585 54.7516 11.4714 54.7516 10.976C54.7516 10.8497 54.7556 10.6913 54.7656 10.4967C54.7756 10.3022 54.7656 10.1177 54.7395 9.93719C54.7135 9.75669 54.6533 9.60227 54.5651 9.47191C54.4748 9.34155 54.3304 9.27537 54.1339 9.27537C53.819 9.27537 53.5623 9.39169 53.3658 9.62633C53.1672 9.86098 53.0148 10.1859 52.9065 10.605C52.7982 11.0242 52.724 11.5236 52.6839 12.1031C52.6438 12.6827 52.6237 13.3145 52.6237 13.9984V16.5614C52.6237 16.6336 52.6598 16.6697 52.732 16.6697H55.2289C55.4455 16.6697 55.5778 16.6837 55.626 16.7098C55.6761 16.7359 55.7002 16.7961 55.7002 16.8843C55.7002 17.0006 55.64 17.125 55.5177 17.2553C55.3953 17.3857 55.259 17.4519 55.1066 17.4519H52.718C52.6558 17.4519 52.6237 17.4839 52.6237 17.5461V26.6271C52.6237 26.9961 52.7019 27.2929 52.8604 27.5176C53.0168 27.7422 53.1973 27.9207 53.3999 28.051C53.6024 28.1814 53.801 28.2736 53.9935 28.3278C54.186 28.3819 54.3184 28.414 54.3906 28.422C54.4628 28.4401 54.5149 28.4702 54.545 28.5103C54.5771 28.5504 54.5871 28.5945 54.5791 28.6386C54.5691 28.6848 54.545 28.7249 54.5049 28.761C54.4648 28.7971 54.4086 28.8151 54.3364 28.8151H47.267C47.1948 28.8151 47.1386 28.7971 47.0985 28.761C47.0584 28.7249 47.0323 28.6848 47.0243 28.6386C47.0143 28.5945 47.0263 28.5504 47.0584 28.5103C47.0905 28.4702 47.1406 28.4401 47.2128 28.422C47.285 28.414 47.4174 28.3819 47.6099 28.3278C47.8025 28.2736 48.001 28.1814 48.2036 28.051C48.4061 27.9207 48.5866 27.7422 48.743 27.5176C48.8995 27.2929 48.9797 26.9961 48.9797 26.6271V17.5602C48.9797 17.488 48.9476 17.4519 48.8854 17.4519H48.4803C48.2637 17.4519 48.1314 17.4378 48.0832 17.4118C48.0331 17.3857 48.009 17.3255 48.009 17.2373C48.009 17.121 48.0612 16.9966 48.1635 16.8663C48.2657 16.7359 48.3941 16.6697 48.5485 16.6697H48.8854C48.9476 16.6697 48.9797 16.6336 48.9797 16.5614C48.9797 15.6349 48.9957 14.8487 49.0278 14.2009C49.0599 13.5531 49.1161 12.9956 49.1963 12.5283C49.2765 12.061 49.3848 11.6599 49.5192 11.327C49.6536 10.9941 49.824 10.6792 50.0326 10.3824C50.2753 10.0495 50.56 9.77073 50.8889 9.54611C51.2179 9.32149 51.5708 9.141 51.9479 9.00663C52.3249 8.87226 52.716 8.778 53.1211 8.72385C53.5262 8.6697 53.9313 8.64363 54.3344 8.64363V8.64162Z" fill="white"/>
</g>
</g>
</g>
<defs>
<clipPath id="clip0_1_385">
<rect width="144" height="41.44" fill="white" transform="translate(0 0.779999)"/>
</clipPath>
<clipPath id="clip1_1_385">
<rect width="144" height="41.44" fill="white" transform="translate(0 0.779999)"/>
</clipPath>
<clipPath id="clip2_1_385">
<rect width="143.966" height="41.44" fill="white" transform="translate(0.0169678 0.779999)"/>
</clipPath>
</defs>
</svg>
