<svg width="70" height="76" viewBox="0 0 70 76" fill="none" xmlns="http://www.w3.org/2000/svg">
<g clip-path="url(#clip0_1_58)">
<g clip-path="url(#clip1_1_58)">
<g clip-path="url(#clip2_1_58)">
<path d="M69.1515 75.0342C65.8643 72.7732 61.9865 71.5251 57.9975 71.4442C54.4975 71.3562 54.3815 68.0562 48.9705 68.0752C43.5595 68.0942 42.0075 65.2982 35.3705 64.4242L33.3625 64.2402C27.6865 66.9202 20.1145 65.5882 18.3465 67.9572C16.5785 70.3262 14.2995 71.7472 9.9765 71.4572C6.6615 71.2322 3.03351 73.7222 0.856506 75.0382L69.1515 75.0342Z" fill="white"/>
<path d="M48.1115 41.2399C44.3865 42.8089 40.7935 47.4879 41.8565 50.9839C42.6859 50.4178 43.5448 49.8961 44.4295 49.4209C46.7665 48.1739 48.9095 47.1209 51.3445 46.0929C48.8049 47.6448 46.4004 49.4077 44.1565 51.3629C41.4815 53.6211 39.04 56.1421 36.8685 58.8879C36.7965 52.8879 36.7505 45.9119 36.8865 43.2349C43.4425 42.1609 48.3595 33.1259 48.6435 24.9349C49.0825 12.2659 38.2925 0.461914 38.2925 0.461914C33.4774 6.82465 29.3749 13.6964 26.0585 20.9539C23.0125 28.0539 24.4255 39.4029 30.8735 42.2299C31.1845 40.5089 31.5165 38.7919 31.9095 37.0849C33.0463 32.3483 34.6046 27.7229 36.5655 23.2639C35.0621 28.5421 34.0061 33.9375 33.4085 39.3929C33.0425 43.4839 32.9435 49.5149 32.9495 55.0619C30.0541 51.6604 26.795 48.5861 23.2305 45.8939C20.5405 43.7999 17.6791 41.936 14.6765 40.3219C17.5265 41.3439 20.0435 42.4119 22.7945 43.6909C23.8366 44.1783 24.852 44.7208 25.8365 45.3159C26.8305 41.2509 22.4255 36.1269 18.0675 34.5689C13.3661 33.0089 8.50767 31.9693 3.5795 31.4689C3.5795 31.4689 4.38949 41.3689 10.3375 46.5239C14.1805 49.8549 20.3715 51.4409 23.6305 48.9129C27.2718 52.0742 30.4217 55.7603 32.9765 59.8499C33.0315 65.0629 33.1475 69.1119 33.1475 69.1119H37.0215C37.0215 69.1119 36.9725 66.4709 36.9215 62.9649C38.867 59.7044 41.2308 56.7123 43.9525 54.0649C46.9155 56.1119 52.2365 54.4039 55.4265 51.3139C60.3635 46.5329 60.5935 37.8509 60.5935 37.8509C56.3206 38.517 52.1345 39.6536 48.1115 41.2399Z" fill="white"/>
</g>
</g>
</g>
<defs>
<clipPath id="clip0_1_58">
<rect width="68.69" height="75" fill="white" transform="translate(0.660004 0.25)"/>
</clipPath>
<clipPath id="clip1_1_58">
<rect width="68.69" height="75" fill="white" transform="translate(0.660004 0.25)"/>
</clipPath>
<clipPath id="clip2_1_58">
<rect width="68.293" height="74.567" fill="white" transform="translate(0.85849 0.466797)"/>
</clipPath>
</defs>
</svg>
