<svg width="25" height="25" viewBox="0 0 25 25" fill="none" xmlns="http://www.w3.org/2000/svg">
<g clip-path="url(#clip0_1_28)">
<path d="M12.84 19.9165C14.973 17.9764 16.5518 16.2259 17.5765 14.6649C18.6012 13.104 19.1135 11.6924 19.1135 10.4301C19.1135 8.53843 18.5078 6.98991 17.2962 5.78451C16.0847 4.57913 14.5992 3.97644 12.8398 3.97644C11.0803 3.97644 9.59492 4.57913 8.38352 5.78451C7.17213 6.98991 6.56644 8.53843 6.56644 10.4301C6.56644 11.6924 7.08713 13.103 8.12849 14.6619C9.16986 16.2209 10.7404 17.9724 12.84 19.9165ZM12.8344 21.8312C12.6275 21.8312 12.4203 21.7958 12.2129 21.7252C12.0055 21.6545 11.8225 21.5443 11.6639 21.3946C10.8122 20.6297 9.96863 19.812 9.13312 18.9413C8.29762 18.0707 7.54983 17.1667 6.88974 16.2295C6.22964 15.2923 5.69509 14.3342 5.28609 13.355C4.87709 12.3758 4.67259 11.4008 4.67259 10.4301C4.67259 7.88601 5.49388 5.85809 7.13644 4.34629C8.77899 2.8345 10.6802 2.07861 12.84 2.07861C14.9998 2.07861 16.9017 2.8345 18.5455 4.34629C20.1894 5.85809 21.0114 7.88601 21.0114 10.4301C21.0114 11.4008 20.8062 12.3758 20.3959 13.355C19.9855 14.3342 19.4503 15.2923 18.7902 16.2295C18.1302 17.1667 17.3824 18.0707 16.5469 18.9413C15.7114 19.812 14.8691 20.6297 14.0201 21.3946C13.8583 21.5443 13.672 21.6545 13.4611 21.7252C13.2502 21.7958 13.0413 21.8312 12.8344 21.8312ZM12.8415 12.1311C13.3633 12.1311 13.8077 11.9478 14.1747 11.5812C14.5417 11.2146 14.7251 10.7704 14.7251 10.2485C14.7251 9.72666 14.5412 9.28225 14.1732 8.91529C13.8052 8.54832 13.3604 8.36484 12.8385 8.36484C12.3167 8.36484 11.8729 8.54881 11.5073 8.91676C11.1417 9.28471 10.9588 9.72961 10.9588 10.2515C10.9588 10.7733 11.1422 11.2171 11.5088 11.5827C11.8754 11.9483 12.3196 12.1311 12.8415 12.1311Z" fill="white"/>
</g>
<defs>
<clipPath id="clip0_1_28">
<rect width="24" height="24" fill="white" transform="translate(0.839996 0.25)"/>
</clipPath>
</defs>
</svg>
