<svg width="25" height="25" viewBox="0 0 25 25" fill="none" xmlns="http://www.w3.org/2000/svg">
<g clip-path="url(#clip0_1_33)">
<path d="M4.63646 20.4174C4.11989 20.4174 3.67511 20.2309 3.30211 19.8579C2.92911 19.4849 2.74261 19.0401 2.74261 18.5235V5.97644C2.74261 5.45877 2.92911 5.01305 3.30211 4.63929C3.67511 4.2655 4.11989 4.07861 4.63646 4.07861H17.1836C17.7012 4.07861 18.1469 4.2655 18.5207 4.63929C18.8945 5.01305 19.0814 5.45877 19.0814 5.97644V11L22.2651 7.81629C22.413 7.66569 22.5861 7.6291 22.7842 7.70654C22.9823 7.78395 23.0814 7.92827 23.0814 8.13949V16.3605C23.0814 16.5717 22.9823 16.716 22.7842 16.7934C22.5861 16.8709 22.413 16.8343 22.2651 16.6837L19.0814 13.5V18.5235C19.0814 19.0401 18.8945 19.4849 18.5207 19.8579C18.1469 20.2309 17.7012 20.4174 17.1836 20.4174H4.63646ZM4.63646 18.5235H17.1836V5.97644H4.63646V18.5235Z" fill="white"/>
</g>
<defs>
<clipPath id="clip0_1_33">
<rect width="24" height="24" fill="white" transform="translate(0.910004 0.25)"/>
</clipPath>
</defs>
</svg>
